<svg width="509" height="463" viewBox="0 0 509 463" fill="none" xmlns="http://www.w3.org/2000/svg">
<path d="M508.469 141.728C508.375 142.718 508.266 143.709 508.147 144.702C507.78 147.703 507.251 150.682 506.562 153.626C506.182 155.26 505.758 156.871 505.288 158.472C503.147 165.788 500.108 172.775 496.477 179.551C495.236 181.876 493.921 184.175 492.551 186.455C492.493 186.551 492.435 186.648 492.377 186.741C492.133 187.147 491.889 187.551 491.638 187.953C490.921 189.121 490.19 190.285 489.445 191.446C488.162 193.439 486.844 195.421 485.493 197.391C484.222 199.25 482.928 201.101 481.608 202.945C479.351 206.103 477.042 209.244 474.71 212.383C473.476 214.049 472.236 215.711 470.993 217.37C470.852 217.557 470.713 217.747 470.572 217.933C469.739 219.056 468.905 220.177 468.07 221.297C466.568 223.316 465.076 225.341 463.594 227.371C463.134 228.002 462.677 228.635 462.224 229.266C461.725 229.954 461.23 230.643 460.738 231.333C460.362 231.864 459.987 232.394 459.613 232.925C458.857 233.992 458.111 235.063 457.375 236.137C453.103 242.262 449.18 248.624 445.624 255.19C444.843 256.663 444.087 258.145 443.357 259.637C442.83 260.718 442.32 261.807 441.827 262.905C441.524 263.57 441.23 264.238 440.942 264.908C440.631 265.632 440.328 266.358 440.036 267.088C439.547 268.281 439.087 269.484 438.646 270.696C438.444 271.243 438.251 271.793 438.061 272.343C437.428 274.172 436.85 276.024 436.328 277.896C436.141 278.549 435.968 279.205 435.797 279.864C435.164 282.337 434.636 284.826 434.186 287.334C433.855 289.177 433.564 291.027 433.312 292.884C433.305 292.926 433.299 292.971 433.296 293.013C432.868 296.103 432.53 299.207 432.231 302.323C432.147 303.184 432.067 304.046 431.99 304.908C431.9 305.898 431.813 306.886 431.726 307.876C431.453 311.024 431.186 314.172 430.881 317.314C430.697 319.166 430.498 321.016 430.282 322.864C429.964 325.533 429.591 328.19 429.134 330.833C429.051 331.325 428.961 331.817 428.871 332.306C428.53 334.164 428.139 336.014 427.697 337.856L427.61 338.213C427.552 338.448 427.494 338.682 427.433 338.917C427.247 339.657 427.051 340.4 426.842 341.136C426.692 341.667 426.537 342.197 426.379 342.728C425.228 346.51 423.821 350.209 422.166 353.8C419.768 358.999 416.905 363.972 413.612 368.656C410.679 372.843 407.454 376.818 403.962 380.551C394.28 390.931 382.587 399.659 370.11 406.476C369.342 406.897 368.567 407.312 367.792 407.717C359.855 411.839 351.638 415.399 343.202 418.371C322.978 425.58 301.652 429.979 280.509 434.076C259.237 438.199 237.804 442.109 216.266 444.295C201.969 445.749 187.623 446.444 173.246 445.935C166.593 445.701 159.898 445.186 153.261 444.295C135.61 441.932 118.377 436.912 103.44 427.404C99.2003 424.688 95.1628 421.669 91.3587 418.371C87.0834 414.656 83.039 410.684 79.2484 406.476C72.9778 399.572 67.241 392.114 61.7615 384.584C60.7871 383.246 59.8203 381.901 58.8609 380.551C56.0987 376.66 53.407 372.705 50.8795 368.656C47.8601 363.872 45.1316 358.911 42.7085 353.8C41.0146 350.2 39.5369 346.503 38.2837 342.728C37.9299 341.663 37.5976 340.591 37.2868 339.512C37.2289 339.313 37.1744 339.116 37.1197 338.917C36.3763 336.255 35.7676 333.557 35.2963 330.833C33.8357 322.266 33.6407 313.531 34.7175 304.908C35.2035 300.901 35.9392 296.928 36.9203 293.013C39.1927 283.955 42.6551 275.237 47.2169 267.088C49.5205 262.96 52.0899 258.985 54.9088 255.19C58.2386 250.711 61.917 246.501 65.9097 242.601C70.9678 237.677 76.455 233.214 82.3064 229.266C89.1882 224.624 96.4924 220.641 104.122 217.37C122.406 209.479 142.514 205.386 162.461 204.794C184.758 204.132 210.641 206.074 227.427 193.266C228.18 192.69 228.915 192.083 229.633 191.446C231.268 189.993 232.773 188.4 234.132 186.686C235.879 184.479 237.378 182.086 238.602 179.551C239.707 177.26 240.616 174.88 241.316 172.435C243.039 166.495 243.715 160.138 243.94 153.626C244.078 149.696 244.052 145.709 243.994 141.728C243.917 136.329 243.785 130.939 243.924 125.704C244.014 122.392 244.24 119.092 244.602 115.803C245.04 111.806 245.674 107.841 246.506 103.908C247.914 97.2311 249.849 90.6763 252.294 84.3053C252.725 83.1798 253.171 82.0609 253.632 80.9485C254.471 78.919 255.362 76.9123 256.304 74.9284C256.925 73.6164 257.567 72.3152 258.23 71.0246C259.446 68.6484 260.733 66.3106 262.092 64.0112C262.842 62.7378 263.612 61.4761 264.404 60.2263C268.526 53.73 273.186 47.5911 278.335 41.8744C281.758 38.0703 285.395 34.465 289.23 31.0761C290.127 30.2818 291.036 29.5004 291.956 28.7319C297.379 24.1873 303.168 20.0981 309.263 16.5058C310.373 15.853 311.494 15.2174 312.627 14.5989C313.804 13.9526 314.99 13.3276 316.187 12.7242C319.918 10.8355 323.745 9.14385 327.654 7.65623C334.338 5.11608 341.242 3.19891 348.279 1.92911C353.821 0.927887 359.425 0.316458 365.052 0.099363C368.589 -0.0421273 372.128 -0.0313769 375.667 0.131551C380.408 0.342823 385.133 0.811934 389.823 1.53681C402.446 3.51374 414.747 7.17812 426.395 12.4316C437.436 17.3857 447.838 23.6556 457.375 31.105C458.51 31.9861 459.631 32.8876 460.738 33.8094C476.338 46.7332 489.22 62.7924 497.738 80.9485C498.262 82.0575 498.767 83.1764 499.253 84.3053C502.005 90.6367 504.201 97.1958 505.816 103.908C508.793 116.28 509.69 129.061 508.469 141.728Z" fill="#D5E6F6"/>
<path d="M262.092 103.909V115.804H244.602C245.039 111.806 245.674 107.841 246.505 103.909H262.092Z" fill="white"/>
<path d="M262.092 141.729V153.627H243.939C244.077 149.697 244.052 145.71 243.994 141.729H262.092Z" fill="white"/>
<path d="M262.092 179.551V191.446H229.633C231.267 189.993 232.772 188.401 234.131 186.687C235.879 184.48 237.378 182.087 238.601 179.551H262.092Z" fill="white"/>
<path d="M262.092 217.371V229.266H82.3058C89.1877 224.624 96.4918 220.641 104.121 217.371H262.092Z" fill="white"/>
<path d="M440.941 264.908C440.768 265.313 440.594 265.719 440.427 266.127C440.295 266.449 440.163 266.767 440.035 267.088H47.2159C49.5195 262.96 52.0889 258.986 54.9078 255.19H262.091V264.908H440.941Z" fill="white"/>
<path d="M433.295 293.013C432.867 296.104 432.53 299.207 432.231 302.323C432.147 303.185 432.067 304.046 431.989 304.908H34.7169C35.2029 300.901 35.9386 296.929 36.9197 293.013H433.295Z" fill="white"/>
<path d="M429.134 330.833C429.05 331.325 428.96 331.817 428.87 332.306C428.529 334.164 428.138 336.015 427.696 337.856L427.61 338.213C427.552 338.448 427.494 338.682 427.433 338.917C427.246 339.657 427.05 340.4 426.841 341.136C426.691 341.667 426.537 342.197 426.378 342.728H38.283C37.9293 341.663 37.597 340.592 37.2861 339.512C37.2282 339.313 37.1737 339.117 37.119 338.917C36.3756 336.255 35.7669 333.557 35.2956 330.833H429.134Z" fill="white"/>
<path d="M413.613 368.656C410.68 372.843 407.455 376.818 403.963 380.551H58.8614C56.0991 376.66 53.4075 372.705 50.88 368.656H413.613Z" fill="white"/>
<path d="M370.11 406.476C369.341 406.897 368.566 407.312 367.791 407.717C359.854 411.84 351.637 415.4 343.201 418.371H91.3581C87.0828 414.656 83.0385 410.684 79.2478 406.476H370.11Z" fill="white"/>
<path d="M216.265 444.294C201.968 445.747 187.623 446.442 173.246 445.934C166.592 445.699 159.897 445.184 153.26 444.294H216.265Z" fill="white"/>
<path d="M375.667 0.131811V267.802H259.989C259.722 267.452 259.458 267.105 259.198 266.754C258.583 265.931 257.979 265.105 257.384 264.275H259.198V245.918H257.056L258.789 235.123L259.198 232.583V71.0235H258.23C258.548 70.4029 258.87 69.7887 259.198 69.1745C260.818 66.126 262.554 63.1429 264.404 60.2252C268.526 53.7289 273.185 47.5901 278.334 41.8734C281.757 38.0693 285.395 34.464 289.229 31.0751C290.126 30.2808 291.035 29.4994 291.956 28.7308C297.379 24.1863 303.167 20.0971 309.263 16.5048C310.372 15.852 311.493 15.2164 312.626 14.5979C313.803 13.9515 314.99 13.3266 316.186 12.7232C319.917 10.8345 323.745 9.14285 327.653 7.65523C334.337 5.11508 341.242 3.19787 348.279 1.92807C353.82 0.926851 359.425 0.315462 365.051 0.0983669C368.589 -0.0431233 372.127 -0.0319743 375.667 0.131811Z" fill="#BBDCFF"/>
<path d="M389.822 1.53685V267.802H375.667V0.131592C380.407 0.342864 385.133 0.811974 389.822 1.53685Z" fill="#84B9FF"/>
<path d="M357.794 1.92944V12.7245H316.186C319.917 10.8358 323.745 9.14418 327.653 7.65656C334.337 5.11642 341.242 3.19924 348.279 1.92944H357.794Z" fill="white"/>
<path d="M313.17 31.0779H357.794V41.8739H313.17V31.0779Z" fill="white"/>
<path d="M295.297 31.0764V41.8747H278.334C281.757 38.0707 285.395 34.4654 289.229 31.0764H295.297Z" fill="white"/>
<path d="M313.17 60.2273H357.794V71.0233H313.17V60.2273Z" fill="white"/>
<path d="M295.297 60.2266V71.0249H258.23C258.548 70.4042 258.87 69.79 259.198 69.1758C260.818 66.1274 262.554 63.1443 264.404 60.2266H295.297Z" fill="white"/>
<path d="M313.17 89.3765H357.794V100.172H313.17V89.3765Z" fill="white"/>
<path d="M259.198 89.3765H295.297V100.171H259.198V89.3765Z" fill="white"/>
<path d="M313.17 118.526H357.794V129.322H313.17V118.526Z" fill="white"/>
<path d="M259.198 118.527H295.297V129.322H259.198V118.527Z" fill="white"/>
<path d="M313.17 147.676H357.794V158.472H313.17V147.676Z" fill="white"/>
<path d="M259.198 147.677H295.297V158.472H259.198V147.677Z" fill="white"/>
<path d="M313.17 176.825H357.794V187.621H313.17V176.825Z" fill="white"/>
<path d="M259.198 176.824H295.297V187.622H259.198V176.824Z" fill="white"/>
<path d="M313.17 205.975H357.794V216.771H313.17V205.975Z" fill="white"/>
<path d="M259.198 205.975H295.297V216.77H259.198V205.975Z" fill="white"/>
<path d="M313.17 235.125H357.794V245.921H313.17V235.125Z" fill="white"/>
<path d="M295.297 235.125V245.92H257.056L258.789 235.125H295.297Z" fill="white"/>
<path d="M313.17 264.274H357.794V267.802H313.17V264.274Z" fill="white"/>
<path d="M295.293 264.274V267.802H259.988C259.722 267.452 259.458 267.104 259.197 266.754C258.583 265.931 257.979 265.104 257.384 264.274H295.293Z" fill="white"/>
<path d="M505.289 158.472C502.411 168.296 497.918 177.532 492.551 186.455C492.493 186.552 492.436 186.648 492.378 186.741C492.133 187.147 491.889 187.552 491.638 187.954C489.686 191.134 487.628 194.276 485.493 197.392C484.223 199.251 482.928 201.102 481.608 202.945C479.351 206.103 477.042 209.245 474.711 212.384C473.339 214.236 471.959 216.086 470.572 217.934C469.739 219.056 468.905 220.177 468.07 221.297C466.568 223.317 465.076 225.342 463.594 227.372C462.636 228.69 461.684 230.011 460.739 231.333C460.362 231.864 459.987 232.395 459.613 232.925C458.857 233.993 458.111 235.064 457.375 236.138C452.146 243.74 447.316 251.512 443.358 259.638C442.83 260.718 442.32 261.807 441.827 262.905C441.094 264.523 440.4 266.155 439.746 267.803H401.02V158.472H505.289Z" fill="#BBDCFF"/>
<path d="M457.376 167.411H492.376V172.963H457.376V167.411Z" fill="white"/>
<path d="M408.358 167.411H443.357V172.963H408.358V167.411Z" fill="white"/>
<path d="M492.376 182.4V186.742C492.132 187.147 491.887 187.552 491.636 187.954H457.376V182.4H492.376Z" fill="white"/>
<path d="M408.358 182.401H443.357V187.953H408.358V182.401Z" fill="white"/>
<path d="M485.492 197.392C484.222 199.25 482.927 201.101 481.607 202.945H457.377V197.392H485.492Z" fill="white"/>
<path d="M408.358 197.392H443.357V202.944H408.358V197.392Z" fill="white"/>
<path d="M474.71 212.384C473.338 214.236 471.958 216.086 470.571 217.934H457.377V212.384H474.71Z" fill="white"/>
<path d="M408.358 212.382H443.357V217.934H408.358V212.382Z" fill="white"/>
<path d="M463.593 227.371C462.635 228.69 461.683 230.01 460.738 231.333C460.362 231.864 459.986 232.394 459.612 232.925H457.377V227.371H463.593Z" fill="white"/>
<path d="M408.358 227.373H443.357V232.924H408.358V227.373Z" fill="white"/>
<path d="M408.358 242.363H443.357V247.915H408.358V242.363Z" fill="white"/>
<path d="M443.357 257.351V259.638C442.83 260.718 442.319 261.807 441.826 262.905H408.357V257.351H443.357Z" fill="white"/>
<g opacity="0.25">
<path opacity="0.25" d="M508.147 144.702C507.574 149.363 506.618 153.968 505.288 158.472C502.41 168.296 497.918 177.531 492.551 186.455L497.046 158.472L505.816 103.908C509.029 117.257 509.819 131.074 508.147 144.702Z" fill="white"/>
</g>
<g opacity="0.25">
<path opacity="0.25" d="M426.394 12.432L415.383 80.949L414.846 84.3058L402.925 158.472L401.019 170.342L393.372 217.934L392.828 221.297L389.822 240.016L385.355 267.803H322.029L322.594 264.275L325.543 245.92L327.28 235.125L329.502 221.297L330.042 217.934L330.229 216.77L331.965 205.975L334.914 187.623L336.65 176.824L339.599 158.472L341.332 147.677L344.284 129.322L346.017 118.527L348.966 100.172L350.703 89.377L351.516 84.3058L352.057 80.949L353.652 71.0251L355.388 60.2268L365.051 0.0998513C368.588 -0.041639 372.127 -0.0308886 375.666 0.13204C380.407 0.343312 385.132 0.812422 389.822 1.53729C402.445 3.51423 414.746 7.17861 426.394 12.432Z" fill="white"/>
</g>
<g opacity="0.25">
<path opacity="0.25" d="M291.956 28.7307L291.579 31.075L289.843 41.8733L286.894 60.2251L285.158 71.0234L283.563 80.9474L283.026 84.3042L282.209 89.3754L280.476 100.17L277.527 118.526L275.79 129.321L272.841 147.676L271.105 158.471L268.156 176.823L266.423 187.621L263.474 205.973L261.738 216.768L261.551 217.932L261.011 221.296L259.197 232.583V71.0234H258.229C258.548 70.4028 258.869 69.7886 259.197 69.1744C260.818 66.1259 262.553 63.1428 264.404 60.2251C268.525 53.7288 273.185 47.59 278.334 41.8733C281.757 38.0692 285.394 34.4639 289.229 31.075C290.126 30.2815 291.035 29.5001 291.956 28.7307Z" fill="white"/>
</g>
<path d="M460.738 217.934H470.572C469.739 219.056 468.905 220.177 468.07 221.297H460.738V231.333C460.362 231.864 459.987 232.395 459.613 232.925C458.857 233.993 458.111 235.064 457.374 236.138V221.297H312.627V267.802H309.263V221.297H259.198V217.934H309.263V84.3057H259.198V80.9489H309.263V16.5065C310.373 15.8537 311.494 15.2181 312.627 14.5996V80.9492H457.374V31.106C458.51 31.9871 459.631 32.8886 460.738 33.8105V80.9495H497.738C498.262 82.0585 498.767 83.1774 499.252 84.3063H460.738V217.934ZM457.374 84.3057H312.627V217.934H457.374V84.3057Z" fill="white"/>
<path d="M191.662 157.001C176.183 169.626 154.921 173.371 135.063 171.226C115.204 169.081 96.3488 161.621 77.9525 153.844C72.9183 151.716 67.6867 149.404 64.2677 145.14C60.5054 140.447 59.5316 134.014 60.204 128.037C60.7684 123.244 62.2747 118.61 64.6363 114.402C66.9978 110.193 70.168 106.493 73.9646 103.514C83.4187 96.175 96.1207 93.7912 105.113 85.8918C119.905 72.8959 119.735 50.4089 124.401 31.2795C125.292 27.6268 126.429 23.9577 128.58 20.8738C134.242 12.7555 145.352 10.655 155.247 10.9052C197.238 11.9644 197.864 39.0869 208.342 70.5398C218.566 101.234 220.401 133.562 191.662 157.001Z" fill="#D5E6F6"/>
<path d="M484.424 214.134L474.238 317.086C473.395 325.617 465.37 332.528 456.322 332.528H266.365C257.318 332.528 250.66 325.617 251.504 317.086L261.69 214.134C262.534 205.603 270.559 198.692 279.607 198.692H469.563C478.611 198.692 485.268 205.603 484.424 214.134Z" fill="#3477AD"/>
<path d="M477.887 214.134L467.701 317.086C466.857 325.617 458.832 332.528 449.785 332.528H259.828C250.78 332.528 244.123 325.617 244.967 317.086L255.153 214.134C255.997 205.603 264.022 198.692 273.069 198.692H463.026C472.073 198.692 478.731 205.603 477.887 214.134Z" fill="#3C2E2D"/>
<path d="M468.463 309.392L467.702 317.086C466.858 325.617 458.833 332.528 449.786 332.528H259.828C250.781 332.528 244.124 325.617 244.968 317.086L245.729 309.392H468.463Z" fill="#5FA0E0"/>
<path d="M353.994 326.405C350.987 326.405 348.549 323.967 348.549 320.96C348.549 317.953 350.987 315.515 353.994 315.515C357.001 315.515 359.438 317.953 359.438 320.96C359.438 323.967 357.001 326.405 353.994 326.405Z" fill="#FAFAFC"/>
<path d="M330.333 332.528L324.394 360.358H400.421L392.105 332.528H330.333Z" fill="#3477AD"/>
<path d="M275.582 151.508L261.752 270.134C261.41 273.071 263.714 275.453 266.901 275.447L444.208 275.121C447.396 275.115 450.256 272.723 450.598 269.787L464.428 151.16C464.771 148.224 462.467 145.841 459.279 145.847L281.973 146.174C278.783 146.179 275.923 148.572 275.582 151.508Z" fill="#84B9FF"/>
<path d="M275.582 151.508L273.853 166.339L462.699 165.991L464.428 151.16C464.771 148.224 462.467 145.841 459.279 145.847L281.973 146.174C278.783 146.179 275.923 148.572 275.582 151.508Z" fill="#3C2E2D"/>
<path d="M449.59 157.19C448.889 155.74 449.672 153.911 451.339 153.106C453.006 152.3 454.926 152.822 455.627 154.272C456.328 155.722 455.545 157.551 453.878 158.357C452.211 159.163 450.291 158.64 449.59 157.19Z" fill="white"/>
<path d="M438.249 157.211C437.548 155.761 438.331 153.932 439.998 153.126C441.665 152.321 443.584 152.843 444.285 154.293C444.986 155.743 444.203 157.572 442.536 158.378C440.87 159.183 438.95 158.661 438.249 157.211Z" fill="white"/>
<path d="M426.907 157.232C426.206 155.782 426.989 153.953 428.656 153.147C430.322 152.341 432.242 152.864 432.943 154.314C433.644 155.764 432.861 157.592 431.194 158.398C429.527 159.204 427.608 158.682 426.907 157.232Z" fill="white"/>
<path d="M412.698 246.462L445.287 246.402L446.01 240.201L413.421 240.261L412.698 246.462Z" fill="#3C2E2D"/>
<path d="M385.711 246.512L405.91 246.475L406.633 240.273L386.434 240.311L385.711 246.512Z" fill="#CC5348"/>
<path d="M357.796 246.563L377.995 246.526L378.718 240.325L358.518 240.362L357.796 246.563Z" fill="white"/>
<path d="M339.756 260.14L443.707 259.949L444.175 255.938L340.223 256.13L339.756 260.14Z" fill="#3C2E2D"/>
<path d="M341.808 267.821L442.811 267.635L443.279 263.625L342.275 263.811L341.808 267.821Z" fill="white"/>
<path d="M275.966 224.525L447.875 224.208L448.342 220.198L276.433 220.514L275.966 224.525Z" fill="white"/>
<path d="M345.975 232.081L446.978 231.895L447.445 227.885L346.442 228.071L345.975 232.081Z" fill="#3C2E2D"/>
<path d="M281.985 172.891L277.199 213.947L449.886 213.629L454.673 172.573L281.985 172.891Z" fill="white"/>
<path d="M277.402 268.969L329.039 268.873C331.873 268.868 334.417 266.744 334.722 264.129L338.373 232.817C338.678 230.203 336.628 228.087 333.794 228.093L282.157 228.189C279.323 228.194 276.778 230.318 276.474 232.932L272.823 264.245C272.518 266.859 274.568 268.974 277.402 268.969Z" fill="#CC5348"/>
<path d="M278.652 201.491L277.2 213.946L449.887 213.628L452.524 191.013C444.422 187.307 435.315 184.72 425.131 184.861C413.763 185.019 402.708 188.615 392.338 192.478C385.705 194.949 378.617 197.649 371.445 197.193C366.747 196.896 362.636 195.267 358.516 193.841C348.327 190.312 336.525 187.846 324.905 189.941C313.196 192.052 303.374 198.479 291.672 200.604C287.382 201.385 282.992 201.554 278.652 201.491Z" fill="#3C2E2D"/>
<path d="M290.332 188.445C288.792 184.829 290.946 180.45 295.143 178.663C299.339 176.877 303.989 178.359 305.529 181.974C307.068 185.59 304.914 189.969 300.717 191.756C296.521 193.543 291.871 192.06 290.332 188.445Z" fill="#CC5348"/>
<path d="M277.615 265.624C277.772 265.624 277.925 265.582 278.06 265.504L334.455 232.384C334.529 232.353 334.595 232.305 334.648 232.244C334.701 232.183 334.74 232.112 334.762 232.034C334.783 231.956 334.786 231.875 334.772 231.795C334.758 231.716 334.726 231.641 334.678 231.576C334.551 231.451 334.385 231.372 334.207 231.353C334.029 231.335 333.85 231.377 333.7 231.473L277.304 264.592C277.23 264.624 277.164 264.672 277.111 264.733C277.058 264.793 277.02 264.865 276.998 264.943C276.977 265.021 276.973 265.102 276.988 265.181C277.002 265.261 277.034 265.336 277.082 265.401C277.149 265.475 277.232 265.533 277.324 265.572C277.416 265.61 277.516 265.628 277.615 265.624Z" fill="white"/>
<path d="M330.161 265.528C330.378 265.529 330.587 265.449 330.748 265.303C330.81 265.254 330.86 265.191 330.893 265.12C330.927 265.048 330.942 264.969 330.939 264.89C330.936 264.811 330.913 264.734 330.874 264.665C330.835 264.596 330.78 264.538 330.714 264.495L282.018 231.569C281.862 231.477 281.68 231.437 281.499 231.456C281.318 231.476 281.148 231.553 281.015 231.676C280.952 231.724 280.903 231.787 280.869 231.859C280.836 231.931 280.82 232.01 280.824 232.089C280.827 232.168 280.849 232.245 280.889 232.314C280.928 232.383 280.983 232.441 281.049 232.484L329.745 265.41C329.869 265.49 330.014 265.531 330.161 265.528Z" fill="white"/>
<path d="M456.068 356.51L456.014 356.735H469.081C470.533 356.732 471.935 357.264 473.02 358.227C473.034 358.236 473.047 358.25 473.061 358.26C473.137 358.332 473.214 358.404 473.29 358.48L473.358 358.547C473.552 358.751 473.732 358.967 473.897 359.195C474.019 359.361 474.132 359.534 474.235 359.712C474.758 360.617 475.033 361.644 475.03 362.689H403.938C403.937 361.907 404.091 361.133 404.39 360.411C404.688 359.689 405.126 359.033 405.679 358.48C406.231 357.927 406.887 357.489 407.609 357.189C408.331 356.89 409.105 356.736 409.887 356.735H423.939L423.881 356.51L423.791 356.182L419.73 341.213L413.273 317.417L412.364 314.075H466.594L464.718 321.653C467.093 322.062 469.992 322.907 472.246 324.652C472.915 325.166 473.515 325.765 474.031 326.433C475.965 328.964 476.383 332.179 475.268 335.983C474.727 337.833 473.921 339.594 472.875 341.213C468.527 347.953 460.986 350.692 457.267 351.672L456.068 356.51ZM467.638 341.212C469.353 339.406 470.614 337.217 471.316 334.827C472.058 332.308 471.874 330.379 470.763 328.927C469.261 326.962 466.235 326.045 463.726 325.653L459.867 341.212L458.433 346.986C461.176 346.001 464.823 344.229 467.638 341.212Z" fill="#B7C04D"/>
<path d="M425.678 356.406C425.035 356.345 424.408 356.268 423.79 356.181L412.366 314.075H439.904C439.904 314.075 457.09 359.38 425.678 356.406Z" fill="#90A429"/>
<path d="M248.164 389.516L247.832 390.687L246.981 393.649L227.973 460.087H217.613L236.621 393.649L237.748 389.707L238.586 386.775L248.164 389.516Z" fill="#3C2E2D"/>
<path d="M465.144 393.649L484.152 460.087H473.792L454.783 393.649L453.601 389.516L463.179 386.775L465.144 393.649Z" fill="#3C2E2D"/>
<path d="M262.013 393.652H224.739V382.639H262.013V393.652Z" fill="#912623"/>
<path d="M477.182 393.652H439.908V382.639H477.182V393.652Z" fill="#912623"/>
<path d="M505.419 385.18L197.914 385.18V362.308L505.419 362.308V385.18Z" fill="#AA332D"/>
<path d="M218.68 380.098L505.42 380.098V362.308L216.131 362.308C214.11 362.308 212.172 363.111 210.742 364.54C209.313 365.97 208.51 367.908 208.51 369.929C208.51 371.265 208.774 372.587 209.285 373.821C209.796 375.055 210.545 376.176 211.489 377.12C212.434 378.064 213.555 378.813 214.789 379.324C216.022 379.835 217.345 380.098 218.68 380.098Z" fill="#CC5348"/>
<path d="M150.224 187.653C149.761 201.834 150.667 212.101 147.218 217.127C145.24 220.016 141.834 221.179 135.915 220.386L131.794 219.659L132.582 231.861C132.624 232.48 132.62 233.102 132.57 233.721H98.8336C97.0681 230.392 96.148 226.68 96.1543 222.911V216.992C96.1543 216.992 73.6102 124.135 143.922 161.714C143.922 161.714 145.019 162.281 146.306 164.351C148.271 167.518 150.661 174.176 150.224 187.653Z" fill="#FFAD95"/>
<path d="M147.216 217.127C145.239 220.016 141.833 221.179 135.913 220.386L131.792 219.659L132.581 231.861C132.623 232.48 132.619 233.102 132.569 233.721C132.316 237.072 130.806 240.203 128.342 242.487C125.879 244.772 122.642 246.041 119.283 246.04C116.245 246.041 113.237 245.444 110.43 244.281C107.624 243.119 105.074 241.416 102.926 239.268C100.778 237.12 99.0743 234.57 97.9122 231.763C96.7501 228.957 96.1522 225.949 96.153 222.911V216.992C96.153 216.992 73.6089 124.135 143.921 161.714C143.921 161.714 145.017 162.281 146.305 164.351C145.3 165.123 144.626 166.248 144.42 167.498C144.093 169.383 144.586 171.299 144.894 173.19C145.97 179.953 144.669 186.879 141.211 192.79C140.305 189.932 139.4 187.072 138.494 184.21C138.149 183.119 137.767 181.974 136.905 181.216C135.882 180.316 134.417 180.169 133.061 180.12C131.497 180.064 129.883 180.087 128.51 180.926C128.086 181.183 127.721 181.525 127.438 181.931C126.28 183.6 127.148 185.201 128.011 186.593C130.795 191.08 133.919 195.346 137.355 199.356C134.725 201.056 131.829 203.181 131.546 206.298C131.281 209.248 133.585 211.885 136.215 213.228C138.852 214.576 141.845 215.008 144.64 215.969C145.539 216.259 146.403 216.648 147.216 217.127Z" fill="#F2927C"/>
<path d="M94.0022 205.979C94.5595 209.084 94.9303 210.961 94.9303 210.961C106.41 222.689 126.017 210.961 126.017 210.961L134.293 195.61C125.839 192.208 128.005 181.328 128.005 181.328C134.359 172.972 140.209 189.633 140.209 189.633C146.331 186.471 146.306 164.355 146.306 164.355C148.416 162.867 153.103 159.101 155.169 152.595C157.878 144.064 154.98 134.291 147.856 127.273C136.149 134.931 126.752 137.343 120.181 138.08C116.903 138.446 111.546 138.709 104.991 141.488C100.867 143.252 97.0452 145.65 93.6634 148.595C84.2816 147.489 91.3117 191.004 94.0022 205.979Z" fill="#AA332D"/>
<path d="M94.0027 205.979C111.323 211.728 121.885 193.254 121.243 180.047C120.538 165.599 132.31 168.436 143.92 161.713C155.531 154.99 150.077 137.638 147.857 127.273C136.149 134.932 126.752 137.343 120.181 138.08C116.904 138.446 111.546 138.709 104.991 141.489C100.868 143.252 97.0457 145.65 93.6638 148.595C84.2821 147.489 91.3121 191.004 94.0027 205.979Z" fill="#CC5348"/>
<path d="M369.971 460.087H144.24C95.5727 433.539 185.17 382.784 224.74 386.689C228.553 387.058 231.903 387.939 234.62 389.405L237.749 389.707L247.831 390.687L262.012 392.066L329.091 398.577C337.194 399.364 344.84 402.695 350.933 408.093C357.027 413.492 361.255 420.681 363.012 428.63L366.548 444.62L369.971 460.087Z" fill="#21324C"/>
<path d="M233.684 387.286L234.62 389.405C234.62 389.405 170.467 397.721 152.654 435.738C152.654 435.738 47.2077 327.341 50.8356 258.636C51.0711 254.221 52.2986 249.916 54.4269 246.04C57.8427 239.808 63.3384 234.972 69.9551 232.378C88.9897 224.892 125.536 216.731 173.91 234.797C181.398 237.589 188.072 242.205 193.329 248.225L234.62 295.563L207.296 327.636L233.684 387.286Z" fill="#82B8F6"/>
<path d="M234.62 389.405C234.62 389.405 170.467 397.721 152.654 435.738C152.654 435.738 47.2077 327.341 50.8356 258.636C51.0711 254.221 52.2986 249.916 54.4269 246.04C55.0153 246.418 84.6373 265.018 134.144 258.91C136.218 258.647 138.325 258.829 140.323 259.445C142.322 260.061 144.166 261.096 145.732 262.481C147.298 263.867 148.551 265.571 149.406 267.479C150.262 269.387 150.7 271.456 150.691 273.547C150.483 306.973 152.896 377.09 176.412 385.18C194.663 391.456 217.768 389.756 233.684 387.286L234.62 389.405Z" fill="#5FA0E0"/>
<path d="M351.431 337.535V362.087H229.84C226.75 362.087 223.697 361.408 220.898 360.099C218.099 358.79 215.621 356.882 213.64 354.511L193.832 330.814L231.22 299.548L248.48 323.28L351.431 337.535Z" fill="#FFAD95"/>
<path d="M193.833 330.815C191.426 326.817 188.779 323.011 186.061 319.264C183.333 315.524 180.515 311.857 177.608 308.261C174.706 304.662 171.717 301.133 168.641 297.674C165.554 294.225 162.391 290.836 158.987 287.641C161.391 291.642 164.036 295.449 166.757 299.195C169.485 302.935 172.304 306.601 175.214 310.195C178.119 313.792 181.11 317.32 184.186 320.78C187.272 324.228 190.433 327.618 193.833 330.815Z" fill="#528BC0"/>
<path d="M280.355 362.087H229.841C226.75 362.087 223.698 361.408 220.899 360.099C218.1 358.79 215.622 356.882 213.64 354.511L193.832 330.814L231.221 299.548C231.221 299.548 206.706 328.825 226.306 342.481C245.905 356.143 280.355 362.087 280.355 362.087Z" fill="#F2927C"/>
<path d="M334.444 358.628L334.675 358.809L339.651 362.726C341.987 364.563 344.745 365.785 347.674 366.284C350.603 366.782 353.611 366.54 356.422 365.58L368.513 361.442C369.205 361.206 369.948 361.165 370.661 361.324C371.527 361.519 372.306 361.992 372.876 362.672C375.218 365.439 377.922 367.876 380.916 369.919C381.302 370.188 381.759 370.336 382.23 370.344C382.7 370.353 383.162 370.221 383.558 369.966C383.954 369.711 384.265 369.345 384.451 368.913C384.638 368.481 384.692 368.003 384.607 367.541C384.091 365.041 383.411 362.578 382.573 360.167C382.531 360.057 382.521 359.938 382.543 359.822C382.564 359.706 382.617 359.598 382.695 359.51C382.751 359.44 382.821 359.382 382.9 359.339C382.979 359.296 383.066 359.27 383.156 359.261C383.246 359.252 383.336 359.262 383.422 359.288C383.508 359.315 383.587 359.359 383.656 359.417C389.544 364.182 393.579 365.761 395.903 366.247C396.078 366.284 396.258 366.302 396.437 366.3C396.75 366.293 397.058 366.224 397.344 366.097C397.63 365.969 397.888 365.786 398.102 365.558C398.316 365.329 398.482 365.061 398.591 364.767C398.7 364.474 398.749 364.162 398.736 363.849C398.601 362.21 398.248 360.596 397.687 359.05H400.608C400.953 359.051 401.294 358.976 401.607 358.83C401.919 358.684 402.196 358.472 402.417 358.206C402.666 357.914 402.84 357.565 402.926 357.19C403.011 356.816 403.005 356.426 402.907 356.054C402.206 353.348 400.834 350.338 399.852 348.369C399.791 348.248 399.756 348.116 399.748 347.981C399.741 347.846 399.761 347.711 399.808 347.584C399.896 347.347 400.07 347.151 400.295 347.037C400.521 346.922 400.781 346.897 401.024 346.967C402.246 347.309 403.496 347.54 404.76 347.658C405.203 347.692 405.646 347.6 406.04 347.394C406.434 347.188 406.762 346.876 406.986 346.493C407.211 346.11 407.324 345.671 407.312 345.227C407.299 344.783 407.163 344.351 406.917 343.981C401.421 335.779 390.646 327.822 384.905 323.925C384.302 323.518 383.647 323.194 382.959 322.96C381.027 322.313 378.923 322.418 377.065 323.254L342.635 338.775L334.444 358.628Z" fill="#FFAD95"/>
<path d="M401.026 346.965C402.248 347.307 403.498 347.538 404.762 347.656C404.762 347.656 395.182 340.625 388.044 337.851L399.81 347.582C399.898 347.345 400.071 347.149 400.297 347.035C400.522 346.92 400.783 346.895 401.026 346.965Z" fill="#F2927C"/>
<path d="M385.661 349.083L398.192 359.049H400.608C400.953 359.05 401.294 358.976 401.607 358.83C401.919 358.684 402.196 358.471 402.417 358.206L385.661 349.083Z" fill="#F2927C"/>
<path d="M378.263 353.122L382.695 359.51C382.751 359.44 382.821 359.382 382.9 359.339C382.979 359.296 383.066 359.269 383.155 359.261C383.245 359.252 383.335 359.261 383.421 359.288C383.507 359.315 383.587 359.359 383.656 359.417C389.543 364.182 393.578 365.761 395.902 366.246C396.078 366.283 396.257 366.301 396.437 366.3L378.263 353.122Z" fill="#F2927C"/>
<path d="M334.675 358.809L339.651 362.726C341.987 364.562 344.745 365.785 347.674 366.283C350.603 366.782 353.611 366.54 356.422 365.579L368.513 361.442C369.205 361.205 369.948 361.165 370.661 361.324C371.527 361.518 372.306 361.992 372.876 362.672C375.218 365.438 377.922 367.876 380.916 369.918C381.398 370.257 381.989 370.402 382.573 370.325C378.631 365.373 372.292 357.162 372.077 355.289C372.077 355.289 352.378 367.535 340.245 360.76C338.156 359.593 336.307 358.995 334.675 358.809Z" fill="#F2927C"/>
<path d="M399.907 347.393C398.91 346.223 397.84 345.117 396.703 344.083C395.584 343.044 394.43 342.047 393.244 341.091C392.059 340.133 390.835 339.224 389.581 338.352C388.326 337.463 387.016 336.655 385.658 335.934C386.653 337.106 387.723 338.212 388.86 339.246C389.981 340.285 391.131 341.285 392.321 342.237C393.511 343.189 394.731 344.102 395.987 344.974C397.241 345.863 398.551 346.67 399.907 347.393Z" fill="#FD7259"/>
<path d="M397.806 358.853C396.809 357.683 395.739 356.578 394.602 355.543C393.482 354.504 392.329 353.507 391.143 352.552C389.958 351.594 388.734 350.685 387.48 349.813C386.225 348.924 384.915 348.117 383.556 347.396C384.552 348.567 385.622 349.674 386.759 350.708C387.88 351.746 389.03 352.747 390.22 353.699C391.41 354.651 392.63 355.564 393.886 356.436C395.14 357.324 396.45 358.131 397.806 358.853Z" fill="#FD7259"/>
<path d="M383.031 359.619C382.741 358.748 382.364 357.908 381.906 357.113C381.464 356.331 380.976 355.577 380.445 354.853C379.916 354.128 379.343 353.436 378.73 352.781C378.109 352.104 377.42 351.493 376.675 350.957C376.963 351.829 377.339 352.67 377.797 353.465C378.239 354.247 378.727 355.001 379.26 355.724C379.79 356.448 380.363 357.139 380.976 357.795C381.598 358.471 382.287 359.082 383.031 359.619Z" fill="#FD7259"/>
<path d="M366.547 444.62C365.192 444.829 363.806 445.032 362.408 445.242C169.853 473.749 234.621 389.405 234.621 389.405L237.75 389.707L247.832 390.686L262.013 392.066L329.092 398.577C337.195 399.363 344.841 402.695 350.934 408.093C357.028 413.492 361.256 420.681 363.013 428.63L366.547 444.62Z" fill="#314260"/>
<path d="M158.986 460.087H34.4504C34.4504 460.087 43.955 406.037 34.4504 374.561C26.4617 348.093 19.3104 304.415 7.35448 279.525C5.08774 274.806 2.64861 270.765 -0.000152588 267.643H115.327C118.509 267.641 121.618 268.595 124.251 270.382C126.885 272.168 128.92 274.705 130.095 277.662C138.745 299.471 157.914 353.647 158.986 407.823C160.372 477.907 158.986 460.087 158.986 460.087Z" fill="#FA7942"/>
<path d="M144.24 460.087H34.4512C34.4512 460.087 43.9558 406.036 34.4512 374.561C26.4625 348.093 19.3112 304.415 7.35527 279.524H102.193C105.688 279.522 109.101 280.586 111.977 282.574C114.852 284.562 117.053 287.38 118.286 290.65C126.376 312.147 142.812 361.643 143.754 411.135C144.37 443.351 144.382 455.781 144.24 460.087Z" fill="#EA5521"/>
<path d="M147.881 460.722C149.617 450.762 147.823 416.769 146.599 397.393C146.373 393.819 144.976 390.418 142.625 387.716C140.274 385.015 137.099 383.162 133.591 382.444C90.6096 373.759 60.6587 378.726 46.6325 382.459C43.0922 383.398 39.9733 385.506 37.7831 388.442C35.5929 391.377 34.4601 394.967 34.5688 398.628C35.0994 419.358 30.8194 459.289 30.7763 459.69L38.1251 460.484C38.3042 458.827 42.5013 419.663 41.9579 398.439C41.896 396.441 42.5121 394.479 43.7059 392.875C44.8998 391.271 46.6011 390.117 48.5335 389.602C61.9372 386.035 90.6202 381.302 132.126 389.689C134.042 390.083 135.775 391.097 137.057 392.573C138.34 394.05 139.101 395.908 139.222 397.86C141.27 430.276 141.772 452.725 140.599 459.452L147.881 460.722Z" fill="#3C2E2D"/>
<path d="M268.944 460.361L276.315 459.814L273.564 422.783C273.188 417.717 271.816 412.775 269.528 408.24C267.239 403.705 264.079 399.665 260.228 396.353C256.376 393.041 251.91 390.521 247.083 388.937C242.257 387.353 237.165 386.737 232.1 387.123L142.629 393.944L143.191 401.315L232.662 394.493C236.758 394.181 240.875 394.68 244.778 395.961C248.68 397.241 252.292 399.279 255.407 401.958C258.521 404.636 261.076 407.902 262.927 411.569C264.778 415.236 265.887 419.232 266.192 423.328L268.944 460.361Z" fill="#3C2E2D"/>
</svg>
